<?xml version="1.0" encoding="UTF-8" standalone="no"?>
<svg
   xmlns:dc="http://purl.org/dc/elements/1.1/"
   xmlns:cc="http://creativecommons.org/ns#"
   xmlns:rdf="http://www.w3.org/1999/02/22-rdf-syntax-ns#"
   xmlns:svg="http://www.w3.org/2000/svg"
   xmlns="http://www.w3.org/2000/svg"
   xmlns:sodipodi="http://sodipodi.sourceforge.net/DTD/sodipodi-0.dtd"
   xmlns:inkscape="http://www.inkscape.org/namespaces/inkscape"
   version="1.1"
   x="0px"
   y="0px"
   viewBox="0 0 70 40"
   enable-background="new 0 0 100 100"
   xml:space="preserve"
   id="svg3336"
   inkscape:version="0.91 r13725"
   sodipodi:docname="icon.svg"
   width="70"
   height="40"><metadata
     id="metadata3352"><rdf:RDF><cc:Work
         rdf:about=""><dc:format>image/svg+xml</dc:format><dc:type
           rdf:resource="http://purl.org/dc/dcmitype/StillImage" /><dc:title></dc:title></cc:Work></rdf:RDF></metadata><defs
     id="defs3350" /><sodipodi:namedview
     pagecolor="#ffffff"
     bordercolor="#666666"
     borderopacity="1"
     objecttolerance="10"
     gridtolerance="10"
     guidetolerance="10"
     inkscape:pageopacity="0"
     inkscape:pageshadow="2"
     inkscape:window-width="1280"
     inkscape:window-height="692"
     id="namedview3348"
     showgrid="false"
     inkscape:zoom="5.24"
     inkscape:cx="17.175573"
     inkscape:cy="50"
     inkscape:window-x="0"
     inkscape:window-y="1"
     inkscape:window-maximized="1"
     inkscape:current-layer="svg3336" /><rect
     x="34.716225"
     y="10.34593"
     width="1.9529999"
     height="0.54180002"
     id="rect3338" /><rect
     x="34.716225"
     y="15.374033"
     width="1.9529999"
     height="0.54425001"
     id="rect3340" /><rect
     x="34.716225"
     y="20.40423"
     width="1.9529999"
     height="0.54320002"
     id="rect3342" /><path
     d="m 39.385223,25.139032 0,-17.2367999 c 0,-2.0377 -1.65305,-3.6904 -3.6925,-3.6904 -2.0363,0 -3.8465,1.65305 -3.8465,3.6904 l 0,17.3652499 c -1.27435,1.0885 -2.08635,2.7048 -2.08635,4.51255 0,3.276 2.6558,5.9318 5.9332,5.9318 3.27775,0 5.93355,-2.6558 5.93355,-5.9318 -3.5e-4,-1.88055 -0.8771,-3.5539 -2.2414,-4.641 z m -3.6925,8.58025 c -2.17105,0 -3.93225,-1.7612 -3.93225,-3.9333 0,-1.4574 0.8022,-2.7153 1.97925,-3.395 l 0,-17.7848999 c 0,-1.0633 0.89075,-1.92465 1.953,-1.92465 1.06225,0 1.95615,0.861 1.95615,1.92465 l 0,17.7855999 c 1.17635,0.68005 1.9768,1.9376 1.9768,3.39395 0,2.1721 -1.75805,3.93365 -3.93295,3.93365 z"
     id="path3344"
     inkscape:connector-curvature="0" /><path
     d="m 36.744473,27.204032 0,-3.8311 -2.1021,0 0,3.8311 c -1.01885,0.4158 -1.7388,1.4133 -1.7388,2.5816 0,1.54105 1.24915,2.79055 2.78915,2.79055 1.54315,0 2.7895,-1.24915 2.7895,-2.79055 0,-1.1683 -0.71785,-2.1658 -1.73775,-2.5816 z"
     id="path3346"
     inkscape:connector-curvature="0" /></svg>